<svg id="Layer_1" data-name="Layer 1" xmlns="http://www.w3.org/2000/svg" viewBox="0 0 512 512"><defs><style>.cls-1{fill:#e40303;}.cls-2{fill:#ff8c00;}.cls-3{fill:#ffed00;}.cls-4{fill:#008026;}.cls-5{fill:#004dff;}.cls-6{fill:#750787;}.cls-7{fill:#fff;}</style></defs><title>Artboard 2</title><path class="cls-1" d="M65.21,85.33H446.79a256,256,0,0,0-381.59,0Z"/><path class="cls-2" d="M14.59,170.67H497.41a255.82,255.82,0,0,0-50.62-85.33H65.21A255.81,255.81,0,0,0,14.59,170.67Z"/><path class="cls-3" d="M14.59,170.67A255.55,255.55,0,0,0,0,256H512a255.54,255.54,0,0,0-14.59-85.33Z"/><path class="cls-4" d="M497.41,341.33A255.54,255.54,0,0,0,512,256H0a255.55,255.55,0,0,0,14.59,85.33Z"/><path class="cls-5" d="M65.21,426.67H446.79a255.82,255.82,0,0,0,50.62-85.33H14.59A255.82,255.82,0,0,0,65.21,426.67Z"/><path class="cls-6" d="M446.79,426.67H65.21a256,256,0,0,0,381.58,0Z"/><path class="cls-7" d="M256,409.6A153.45,153.45,0,0,1,107.42,294.39a14.63,14.63,0,1,1,28.33-7.3,124.16,124.16,0,0,0,240.5,0,14.63,14.63,0,1,1,28.33,7.3A153.44,153.44,0,0,1,256,409.6Z"/></svg>